<?xml version="1.0" encoding="utf-8"?>
<!-- Generator: Adobe Illustrator 25.2.2, SVG Export Plug-In . SVG Version: 6.00 Build 0)  -->
<svg version="1.1" id="Capa_1" xmlns="http://www.w3.org/2000/svg" xmlns:xlink="http://www.w3.org/1999/xlink" x="0px" y="0px"
	 viewBox="0 0 512 512" style="enable-background:new 0 0 512 512;" xml:space="preserve">
<style type="text/css">
	.st0{fill:#F5C028;}
</style>
<g>
	<g>
		<g>
			<path class="st0" d="M497,482h-16V135c0-8.3-6.7-15-15-15h-60c-8.3,0-15,6.7-15,15v347h-30V315c0-8.3-6.7-15-15-15h-60
				c-8.3,0-15,6.7-15,15v167h-30V195c0-8.3-6.7-15-15-15h-60c-8.3,0-15,6.7-15,15v287h-30V345c0-8.3-6.7-15-15-15H46
				c-8.3,0-15,6.7-15,15v137H15c-8.3,0-15,6.7-15,15s6.7,15,15,15h482c8.3,0,15-6.7,15-15S505.3,482,497,482z M91,482H61V360h30V482
				z M211,482h-30V210h30V482z M331,482h-30V330h30V482z M451,482h-30V150h30V482z M402.8,50l8.9,2.9l-5.5,7.6
				c-4.9,6.7-3.4,16.1,3.3,21c6.7,4.8,16.1,3.4,21-3.3l5.5-7.6l5.5,7.6c4.9,6.7,14.3,8.2,21,3.3c6.7-4.9,8.2-14.2,3.3-21l-5.5-7.6
				l8.9-2.9c7.9-2.6,12.2-11,9.6-18.9s-11-12.2-18.9-9.6l-8.9,2.9V15c0-8.3-6.7-15-15-15s-15,6.7-15,15v9.4l-8.9-2.9
				c-7.9-2.6-16.3,1.8-18.9,9.6C390.6,39,395,47.4,402.8,50z M282.8,230l8.9,2.9l-5.5,7.6c-4.9,6.7-3.4,16.1,3.3,21
				c6.7,4.8,16.1,3.4,21-3.3l5.5-7.6l5.5,7.6c4.9,6.7,14.3,8.2,21,3.3c6.7-4.9,8.2-14.3,3.3-21l-5.5-7.6l8.9-2.9
				c7.9-2.6,12.2-11,9.6-18.9s-11-12.2-18.9-9.6l-8.9,2.9V195c0-8.3-6.7-15-15-15s-15,6.7-15,15v9.4l-8.9-2.9
				c-7.9-2.6-16.3,1.8-18.9,9.6C270.6,219,275,227.4,282.8,230z M42.8,260l8.9,2.9l-5.5,7.6c-4.9,6.7-3.4,16.1,3.3,21
				c6.7,4.8,16.1,3.4,21-3.3l5.5-7.6l5.5,7.6c4.9,6.7,14.3,8.2,21,3.3c6.7-4.9,8.2-14.2,3.3-21l-5.5-7.6l8.9-2.9
				c7.9-2.6,12.2-11,9.6-18.9c-2.6-7.9-11-12.2-18.9-9.6l-8.9,2.9V225c0-8.3-6.7-15-15-15s-15,6.7-15,15v9.4l-8.9-2.9
				c-7.9-2.6-16.3,1.8-18.9,9.6C30.6,249,35,257.4,42.8,260z M162.8,110l8.9,2.9l-5.5,7.6c-4.9,6.7-3.4,16.1,3.3,21
				c6.7,4.8,16.1,3.4,21-3.3l5.5-7.6l5.5,7.6c4.9,6.7,14.3,8.2,21,3.3c6.7-4.9,8.2-14.2,3.3-21l-5.5-7.6l8.9-2.9
				c7.9-2.6,12.2-11,9.6-18.9c-2.6-7.9-11-12.2-18.9-9.6l-8.9,2.9V75c0-8.3-6.7-15-15-15s-15,6.7-15,15v9.4l-8.9-2.9
				c-7.9-2.6-16.3,1.8-18.9,9.6C150.6,99,155,107.4,162.8,110L162.8,110z"/>
		</g>
	</g>
</g>
</svg>
