<?xml version="1.0" encoding="utf-8"?>
<!-- Generator: Adobe Illustrator 25.2.2, SVG Export Plug-In . SVG Version: 6.00 Build 0)  -->
<svg version="1.1" id="Capa_1" xmlns="http://www.w3.org/2000/svg" xmlns:xlink="http://www.w3.org/1999/xlink" x="0px" y="0px"
	 viewBox="0 0 60.1 60.1" style="enable-background:new 0 0 60.1 60.1;" xml:space="preserve">
<style type="text/css">
	.st0{fill:#F5C028;}
</style>
<g>
	<path class="st0" d="M57.1,51.9H16.9c-1.7,0-3-1.3-3-3s1.3-3,3-3h40.2c1.7,0,3,1.3,3,3S58.8,51.9,57.1,51.9z"/>
	<path class="st0" d="M57.1,33.1H16.9c-1.7,0-3-1.3-3-3s1.3-3,3-3h40.2c1.7,0,3,1.3,3,3C60.1,31.7,58.8,33.1,57.1,33.1z"/>
	<path class="st0" d="M57.1,14.2H16.9c-1.7,0-3-1.3-3-3s1.3-3,3-3h40.2c1.7,0,3,1.3,3,3S58.8,14.2,57.1,14.2z"/>
	<circle class="st0" cx="4" cy="11.5" r="4"/>
	<circle class="st0" cx="4" cy="30.1" r="4"/>
	<circle class="st0" cx="4" cy="48.7" r="4"/>
</g>
</svg>
